<?xml version="1.0" encoding="UTF-8" standalone="no"?>
<svg
   xmlns:dc="http://purl.org/dc/elements/1.1/"
   xmlns:cc="http://creativecommons.org/ns#"
   xmlns:rdf="http://www.w3.org/1999/02/22-rdf-syntax-ns#"
   xmlns:svg="http://www.w3.org/2000/svg"
   xmlns="http://www.w3.org/2000/svg"
   xmlns:sodipodi="http://sodipodi.sourceforge.net/DTD/sodipodi-0.dtd"
   xmlns:inkscape="http://www.inkscape.org/namespaces/inkscape"
   width="134"
   height="34"
   viewBox="0 0 134 34"
   version="1.1"
   id="svg20"
   sodipodi:docname="mercado-envios-logo.svg"
   inkscape:version="0.92.2 (5c3e80d, 2017-08-06)">
  <metadata
     id="metadata26">
    <rdf:RDF>
      <cc:Work
         rdf:about="">
        <dc:format>image/svg+xml</dc:format>
        <dc:type
           rdf:resource="http://purl.org/dc/dcmitype/StillImage" />
      </cc:Work>
    </rdf:RDF>
  </metadata>
  <defs
     id="defs24" />
  <sodipodi:namedview
     pagecolor="#ffffff"
     bordercolor="#666666"
     borderopacity="1"
     objecttolerance="10"
     gridtolerance="10"
     guidetolerance="10"
     inkscape:pageopacity="0"
     inkscape:pageshadow="2"
     inkscape:window-width="1600"
     inkscape:window-height="837"
     id="namedview22"
     showgrid="false"
     inkscape:zoom="2.3656716"
     inkscape:cx="67"
     inkscape:cy="17"
     inkscape:window-x="-8"
     inkscape:window-y="-8"
     inkscape:window-maximized="1"
     inkscape:current-layer="g18" />
  <g
     fill="none"
     id="g18">
    <path
       fill="#2C3378"
       d="M49.092 16.092c0-8.83-10.977-16.02-24.52-16.02C11.03.071.054 7.261.054 16.091v.944c0 9.363 9.587 16.946 24.52 16.946 15.003 0 24.519-7.583 24.519-16.946v-.944z"
       id="path2" />
    <path
       fill="#ABD037"
       d="M48.147 16.092c0 8.313-10.549 15.06-23.574 15.06-13.026 0-23.557-6.747-23.557-15.06S11.565 1.032 24.59 1.032c13.026 0 23.557 6.73 23.557 15.06z"
       id="path4" />
    <g
       fill="#FFF"
       id="g12">
      <path
         d="M16.75 11.34c-.018.017-.25.266-.09.462.375.48 1.516.748 2.692.48.695-.16 1.586-.854 2.44-1.548.927-.748 1.854-1.477 2.78-1.78.98-.32 1.622-.178 2.032-.053.463.142.998.445 1.853 1.085 1.622 1.21 8.09 6.872 9.213 7.85.908-.409 4.918-2.135 10.37-3.328-.48-2.902-2.245-5.554-4.918-7.726-3.742 1.567-8.303 2.386-12.758.214-.018-.018-2.441-1.157-4.83-1.104-3.545.09-5.078 1.62-6.7 3.24l-2.084 2.207z"
         id="path6" />
      <path
         d="M37.402 18.46c-.07-.072-7.626-6.676-9.337-7.957-.98-.748-1.532-.926-2.12-.997-.303-.036-.713.018-1.016.089-.802.213-1.835.908-2.762 1.637-.962.766-1.853 1.478-2.69 1.674-1.07.231-2.37-.036-2.976-.445-.25-.16-.41-.356-.5-.534-.213-.517.179-.926.25-.98l2.103-2.26c.25-.25.48-.48.73-.712-.677.089-1.3.267-1.906.427-.749.214-1.48.41-2.21.41-.303 0-1.942-.267-2.263-.357C10.816 7.94 9.16 7.441 6.7 6.284c-2.958 2.19-4.936 4.948-5.506 7.975.428.106 1.105.32 1.408.373 6.7 1.496 8.784 3.027 9.176 3.347a2.2 2.2 0 0 1 1.658-.748c.748 0 1.407.374 1.817.944.392-.303.909-.57 1.604-.57.303 0 .641.054.962.16.749.267 1.14.766 1.354 1.21.25-.106.57-.195.927-.195.356 0 .73.09 1.123.25 1.23.533 1.425 1.744 1.318 2.652.09-.018.178-.018.268-.018a2.66 2.66 0 0 1 2.655 2.652c0 .445-.107.872-.321 1.246.392.232 1.408.73 2.298.623.713-.089.98-.338 1.087-.462.072-.09.143-.196.072-.285l-1.89-2.1s-.302-.303-.213-.41c.107-.125.303.053.428.16.962.801 2.138 2.011 2.138 2.011.018.018.09.16.535.25.374.07 1.033.035 1.496-.356.107-.09.232-.214.321-.339l-.018.018c.481-.623-.053-1.246-.053-1.246l-2.228-2.42s-.32-.286-.213-.41c.089-.107.303.053.445.16.695.587 1.693 1.567 2.637 2.492.179.143 1.016.641 2.12-.071.678-.445.803-.98.785-1.389-.054-.534-.463-.925-.463-.925l-3.012-3.026s-.32-.267-.214-.41c.09-.124.303.054.428.16.962.801 3.564 3.187 3.564 3.187.035.018.926.658 2.049-.036.392-.249.66-.64.677-1.086a1.598 1.598 0 0 0-.517-1.192z"
         id="path8" />
      <path
         d="M22.773 22.287c-.463 0-.98.267-1.051.231-.036-.017.035-.213.07-.32.054-.107.66-1.958-.837-2.599-1.14-.498-1.853.053-2.085.32-.07.072-.089.054-.106-.017-.018-.339-.179-1.229-1.159-1.531-1.425-.428-2.334.552-2.566.908a1.666 1.666 0 0 0-1.621-1.442c-.909 0-1.64.73-1.64 1.637 0 .908.731 1.638 1.64 1.638a1.65 1.65 0 0 0 1.14-.463s.018.018 0 .054c-.071.409-.196 1.887 1.355 2.492.623.249 1.14.053 1.585-.25.125-.088.143-.053.125.072-.053.374.018 1.192 1.158 1.655.874.356 1.39 0 1.711-.32.143-.143.178-.107.196.089.036 1.104.962 1.976 2.067 1.976 1.14 0 2.067-.926 2.067-2.065.018-1.14-.909-2.047-2.05-2.065z"
         id="path10" />
    </g>
    <path
       fill="#2C3378"
       d="M37.688 17.659c-2.317-2.03-7.698-6.694-9.16-7.78-.837-.622-1.39-.96-1.888-1.103a3.067 3.067 0 0 0-.927-.142c-.374 0-.766.07-1.176.195-.944.303-1.871 1.033-2.78 1.763l-.053.035c-.838.677-1.71 1.37-2.37 1.513a3.662 3.662 0 0 1-.873.107c-.749 0-1.408-.213-1.658-.534-.035-.053-.017-.142.09-.267l.017-.018 2.05-2.207c1.603-1.602 3.118-3.115 6.593-3.186h.178c2.174 0 4.33.979 4.58 1.085 2.03.997 4.133 1.496 6.236 1.496 2.192 0 4.473-.534 6.86-1.638a15.136 15.136 0 0 0-.837-.659c-2.103.908-4.098 1.371-6.023 1.371-1.96 0-3.938-.48-5.845-1.406-.107-.054-2.494-1.175-4.989-1.175h-.196c-2.922.071-4.58 1.104-5.684 2.011-1.087.018-2.014.285-2.834.517-.73.213-1.372.391-1.995.373-.25 0-.713-.017-.766-.017-.713-.018-4.313-.908-7.182-1.994l-.855.64c2.994 1.23 6.647 2.173 7.787 2.244.32.018.66.053.998.053.766 0 1.515-.213 2.263-.427.428-.125.909-.25 1.425-.356-.142.124-.267.267-.41.392l-2.084 2.242c-.16.16-.517.606-.285 1.14.089.213.285.427.552.605.499.338 1.39.552 2.21.552.32 0 .606-.036.873-.09.873-.195 1.782-.925 2.762-1.69.766-.606 1.87-1.389 2.708-1.62.232-.071.517-.107.749-.107.07 0 .142 0 .196.018.552.071 1.087.267 2.049.979 1.71 1.281 9.248 7.886 9.337 7.94 0 0 .481.426.446 1.103-.018.391-.232.73-.606.961-.321.196-.66.303-.998.303-.5 0-.855-.232-.873-.25-.036-.017-2.62-2.385-3.564-3.186-.143-.125-.303-.231-.446-.231a.286.286 0 0 0-.196.089c-.142.178.018.445.214.605l3.03 3.026s.374.356.41.819c.017.498-.214.926-.713 1.246-.357.231-.713.356-1.07.356a1.49 1.49 0 0 1-.855-.267l-.428-.427c-.784-.784-1.603-1.585-2.21-2.083-.142-.125-.302-.231-.445-.231a.286.286 0 0 0-.196.089c-.07.07-.107.213.054.445.071.089.16.178.16.178l2.21 2.474c.018.018.445.534.053 1.05l-.124.16c-.072.072-.143.143-.214.196-.375.303-.873.338-1.07.338-.106 0-.213-.017-.302-.017-.214-.036-.357-.107-.428-.178l-.018-.036c-.125-.125-1.23-1.264-2.156-2.03-.125-.106-.267-.23-.428-.23a.286.286 0 0 0-.196.088c-.178.196.09.499.214.606l1.889 2.065c0 .017-.018.053-.071.124-.072.09-.303.32-.98.41-.09.017-.16.017-.25.017-.695 0-1.461-.338-1.835-.551.178-.374.267-.784.267-1.193a2.805 2.805 0 0 0-2.797-2.813h-.107c.053-.712-.054-2.047-1.426-2.634a2.824 2.824 0 0 0-1.176-.267c-.303 0-.588.053-.855.16a2.281 2.281 0 0 0-1.372-1.157 2.91 2.91 0 0 0-1.016-.178c-.57 0-1.105.16-1.568.498a2.385 2.385 0 0 0-1.853-.89c-.624 0-1.23.25-1.675.694-.588-.445-2.905-1.922-9.124-3.328a31.113 31.113 0 0 1-1.407-.392 9.999 9.999 0 0 0-.16 1.015l1.371.32c6.344 1.406 8.447 2.866 8.803 3.15a2.291 2.291 0 0 0-.178.909 2.387 2.387 0 0 0 2.387 2.385c.143 0 .286-.018.428-.036.196.962.838 1.692 1.8 2.065.285.107.57.16.855.16.178 0 .357-.017.535-.07.178.444.588 1.014 1.479 1.388.32.124.623.196.926.196.25 0 .5-.036.73-.125a2.807 2.807 0 0 0 4.615.89c.447.25 1.409.712 2.371.712.125 0 .25 0 .356-.018.963-.124 1.408-.498 1.604-.783l.107-.16c.232.071.481.125.766.125.517 0 1.034-.178 1.533-.552.499-.356.855-.873.908-1.318v-.017c.16.035.34.053.517.053.535 0 1.07-.16 1.568-.498.98-.641 1.14-1.478 1.123-2.03.178.036.339.054.517.054.499 0 .998-.16 1.479-.463.606-.392.962-.98 1.033-1.673a2.278 2.278 0 0 0-.32-1.353c1.639-.712 5.38-2.065 9.8-3.062a6.62 6.62 0 0 0-.143-1.015c-5.381 1.21-9.355 2.92-10.352 3.365zm-14.915 8.615a1.921 1.921 0 0 1-1.925-1.833c0-.09-.017-.32-.213-.32-.09 0-.16.053-.232.124-.232.214-.517.427-.944.427-.196 0-.393-.053-.624-.142-1.087-.445-1.105-1.193-1.07-1.495.019-.09.019-.16-.035-.232l-.071-.053h-.071c-.054 0-.107.018-.197.07-.32.215-.623.34-.926.34-.178 0-.339-.036-.517-.108-1.443-.551-1.318-1.922-1.265-2.332.018-.089-.018-.142-.053-.195l-.107-.09-.09.09a1.484 1.484 0 0 1-1.033.409c-.82 0-1.497-.676-1.497-1.495 0-.82.677-1.496 1.497-1.496.748 0 1.372.552 1.479 1.3l.053.41.214-.339c.018-.035.624-.961 1.747-.943.213 0 .427.035.641.106.891.268 1.034 1.069 1.051 1.407.018.196.16.196.179.196.07 0 .124-.054.178-.09.16-.177.534-.462 1.105-.462.267 0 .534.071.82.178 1.407.605.765 2.385.765 2.403-.124.303-.124.427-.017.498l.053.018h.036c.071 0 .142-.035.267-.071.196-.071.481-.16.748-.16 1.052.018 1.925.872 1.925 1.922a1.87 1.87 0 0 1-1.871 1.958zM132.61 5.892c-.89-1.104-2.227-1.655-4.027-1.655-1.8 0-3.136.551-4.027 1.655s-1.337 2.421-1.337 3.916c0 1.531.446 2.849 1.337 3.934.89 1.086 2.227 1.638 4.027 1.638 1.8 0 3.154-.552 4.027-1.638.891-1.085 1.319-2.403 1.319-3.934.018-1.513-.428-2.812-1.319-3.916zm-2.192 6.355c-.427.57-1.051.855-1.853.855s-1.425-.285-1.853-.855c-.428-.57-.642-1.37-.642-2.42 0-1.051.214-1.852.642-2.422.428-.57 1.051-.854 1.853-.854s1.426.285 1.853.854c.428.57.642 1.37.642 2.421.018 1.033-.214 1.851-.642 2.421zm-20.42-7.281c-.891-.462-1.925-.676-3.083-.676-1.782 0-3.03.463-3.76 1.389-.463.587-.713 1.352-.784 2.26h2.655c.071-.41.196-.73.392-.961.267-.32.73-.48 1.39-.48.588 0 1.033.088 1.336.249.303.16.446.462.446.89 0 .356-.196.605-.588.783-.214.089-.588.178-1.105.25l-.944.124c-1.07.142-1.89.356-2.424.676-.998.57-1.514 1.513-1.514 2.813 0 .997.303 1.762.944 2.314.624.534 1.408.765 2.37.819 6.005.267 5.934-3.169 5.987-3.88V7.547c.036-1.264-.41-2.136-1.318-2.582zm-1.39 5.982c-.018.925-.285 1.548-.784 1.904a2.771 2.771 0 0 1-1.658.517c-.374 0-.694-.107-.962-.32-.267-.214-.392-.553-.392-1.015 0-.535.214-.908.642-1.158.25-.142.677-.267 1.265-.373l.624-.125c.302-.053.552-.125.73-.196.178-.071.357-.16.535-.267v1.033zM96.313 6.622c.677 0 1.193.214 1.514.64.232.321.357.66.41 1.051h2.976c-.16-1.495-.695-2.528-1.568-3.115-.891-.588-2.014-.89-3.404-.89-1.64 0-2.904.498-3.83 1.495-.927.997-1.39 2.403-1.39 4.201 0 1.584.427 2.884 1.264 3.88.838.998 2.156 1.496 3.92 1.496 1.783 0 3.119-.605 4.028-1.798.57-.747.89-1.53.944-2.367H98.22c-.053.551-.231.997-.517 1.353-.285.338-.766.516-1.443.516-.962 0-1.604-.427-1.96-1.3-.196-.463-.285-1.086-.285-1.851 0-.801.089-1.442.285-1.94.374-.908 1.051-1.371 2.014-1.371zm-6.095-2.314c-6.076 0-5.72 5.376-5.72 5.376v5.465h2.762v-5.127c0-.837.107-1.46.321-1.87.374-.711 1.123-1.067 2.228-1.067.089 0 .196 0 .32.018.143 0 .285.017.464.035V4.326c-.125 0-.196-.018-.232-.018h-.143zM80.08 12.3c-.108.16-.25.303-.375.41-.392.32-.927.41-1.55.41-.588 0-1.052-.09-1.461-.357-.695-.427-1.07-1.139-1.123-2.19h7.644c.018-.907-.017-1.601-.089-2.082a5.178 5.178 0 0 0-.837-2.172c-.481-.712-1.087-1.228-1.818-1.548-.73-.32-1.55-.48-2.459-.48-1.532 0-2.78.48-3.742 1.459-.962.961-1.443 2.367-1.443 4.165 0 1.94.534 3.329 1.604 4.201 1.069.855 2.298 1.282 3.688 1.282 1.693 0 3.012-.516 3.938-1.531.5-.534.82-1.068.962-1.584h-2.94v.018zm-3.707-5.126c.392-.392.926-.605 1.64-.605.64 0 1.193.195 1.62.57.428.373.678.925.731 1.655h-4.722c.09-.695.339-1.229.73-1.62zm-4.669 7.975h-2.512V8.812c0-.588-.196-1.959-1.853-1.959-1.105 0-1.907.801-1.907 1.959v6.337h-2.53V8.812c0-.588-.179-1.959-1.836-1.959-1.122 0-1.906.801-1.906 1.959v6.337h-2.53V8.883c0-2.617 1.746-4.593 4.436-4.593 1.337 0 2.424.57 3.136 1.46.749-.908 1.854-1.46 3.137-1.46 2.744 0 4.383 1.905 4.383 4.593v6.266h-.018zM122.418.997s-2.78-.303-2.78 1.94v2.955a3.373 3.373 0 0 0-1.194-1.157c-.5-.285-1.051-.427-1.693-.427-1.372 0-2.477.516-3.296 1.53-.82 1.033-1.23 2.51-1.23 4.29 0 1.55.41 2.813 1.247 3.81.838.997 2.477 1.424 3.938 1.424 5.079 0 5.025-4.361 5.025-4.361L122.418.997zm-3.315 11.268c-.41.57-.998.872-1.764.872-.784 0-1.354-.285-1.728-.872-.375-.588-.57-1.424-.57-2.385 0-.89.178-1.656.57-2.261.374-.605.962-.908 1.764-.908.534 0 .98.16 1.39.498.641.552.98 1.55.98 2.813-.036.926-.25 1.673-.642 2.243z"
       id="path14" />
    <path
       d="M112.643 21.824c-.89-1.104-2.227-1.655-4.027-1.655-1.8 0-3.136.551-4.027 1.655s-1.319 2.421-1.319 3.934c0 1.531.446 2.848 1.319 3.952.89 1.086 2.227 1.638 4.027 1.638 1.8 0 3.154-.552 4.027-1.638.891-1.086 1.319-2.403 1.319-3.952.018-1.53-.428-2.83-1.319-3.934zm-2.192 6.355c-.427.57-1.05.855-1.853.855-.802 0-1.425-.285-1.853-.855-.428-.57-.641-1.37-.641-2.42 0-1.051.213-1.852.641-2.422.428-.57 1.051-.854 1.853-.854s1.426.285 1.853.854c.428.57.642 1.37.642 2.421 0 1.033-.214 1.851-.642 2.421zm-36.796.018c-.107.16-.232.302-.374.41-.392.32-.927.427-1.55.427-.589 0-1.034-.09-1.462-.357-.677-.427-1.051-1.157-1.087-2.189h7.573c.018-.89-.017-1.584-.089-2.065a5.103 5.103 0 0 0-.837-2.154c-.481-.694-1.07-1.21-1.8-1.53-.73-.321-1.532-.481-2.441-.481-1.533 0-2.762.48-3.724 1.441-.963.962-1.426 2.332-1.426 4.13 0 1.923.535 3.311 1.586 4.166 1.051.854 2.28 1.281 3.653 1.281 1.675 0 2.976-.498 3.902-1.513.5-.534.82-1.05.945-1.566h-2.87zm-3.67-5.091c.391-.392.926-.588 1.62-.588.642 0 1.177.178 1.604.552.428.374.678.926.731 1.638h-4.686c.106-.677.338-1.21.73-1.602zm13.007-2.848c5.649.249 5.31 5.376 5.31 5.376v5.375H85.54v-5.037c0-.837-.107-1.46-.32-1.87-.375-.711-1.123-1.085-2.228-1.085h-.018c-1.105 0-1.853.356-2.227 1.086-.214.409-.32 1.032-.32 1.869v5.037h-2.763v-5.375s-.338-5.074 5.203-5.359l.125-.017m19.352-.908h-2.53l.73-2.208h2.53zm-2.78 1.192h2.78v10.467h-2.78zm-4.811 10.432h-2.798l-3.653-10.45h2.923l2.084 7.352 1.854-6.408c.213-.623.623-.943 1.265-.943h2.049l-3.724 10.449zm22.666-3.364c.053.48.178.836.374 1.032.338.374.98.552 1.889.552.534 0 .98-.09 1.283-.25.32-.16.48-.409.48-.73a.757.757 0 0 0-.391-.694c-.25-.16-1.212-.427-2.87-.818-1.193-.303-2.03-.66-2.512-1.104-.48-.427-.73-1.068-.73-1.887 0-.961.374-1.798 1.14-2.492.766-.694 1.836-1.05 3.226-1.05 1.318 0 2.387.267 3.207.783.82.516 1.3 1.424 1.425 2.706h-2.744c-.035-.356-.142-.641-.303-.837-.303-.374-.82-.552-1.55-.552-.606 0-1.033.09-1.283.285-.25.178-.374.41-.374.659 0 .32.143.534.41.676.267.142 1.23.392 2.869.765 1.087.25 1.906.641 2.459 1.158.534.534.802 1.174.802 1.975 0 1.033-.392 1.887-1.159 2.546-.766.659-1.978.979-3.6.979-1.656 0-2.868-.338-3.652-1.05-.784-.694-1.176-1.585-1.176-2.653h2.78z"
       fill="#FFF"
       id="path16"
       style="fill:#abd037;fill-opacity:1" />
  </g>
</svg>
